<svg xmlns="http://www.w3.org/2000/svg" xmlns:xlink="http://www.w3.org/1999/xlink" version="1.1" width="256" height="256" viewBox="0 0 256 256" xml:space="preserve">

<defs>
</defs>
<g style="stroke: none; stroke-width: 0; stroke-dasharray: none; stroke-linecap: butt; stroke-linejoin: miter; stroke-miterlimit: 10; fill: none; fill-rule: nonzero; opacity: 1;" transform="translate(1.4065934065934016 1.4065934065934016) scale(2.81 2.81)" >
	<path d="M 78.277 47.662 L 64.328 36.945 l 14.085 -12.213 c 1.237 -1.073 1.37 -2.947 0.297 -4.185 c -1.075 -1.239 -2.947 -1.371 -4.186 -0.298 L 57.702 34.837 c -0.002 0.002 -0.005 0.004 -0.007 0.006 l -4.153 3.601 L 33.249 20.848 c -1.239 -1.074 -3.112 -0.939 -4.185 0.298 c -1.073 1.238 -0.94 3.112 0.298 4.185 l 13.546 11.746 l -7.028 5.599 c -1.282 1.021 -1.493 2.887 -0.472 4.169 c 0.586 0.736 1.45 1.118 2.322 1.118 c 0.648 0 1.3 -0.212 1.847 -0.646 l 7.89 -6.286 l 4.13 3.581 c 0.558 0.483 1.251 0.725 1.944 0.725 c 0.692 0 1.386 -0.242 1.944 -0.725 l 4.266 -3.699 l 14.909 11.454 c 0.539 0.414 1.175 0.614 1.806 0.614 c 0.89 0 1.77 -0.399 2.355 -1.159 C 79.82 50.523 79.576 48.661 78.277 47.662 z" style="stroke: none; stroke-width: 1; stroke-dasharray: none; stroke-linecap: butt; stroke-linejoin: miter; stroke-miterlimit: 10; fill: rgb(0,0,0); fill-rule: nonzero; opacity: 1;" transform=" matrix(1 0 0 1 0 0) " stroke-linecap="round" />
	<path d="M 83.126 10.362 H 23.957 c -3.787 0 -6.867 3.078 -6.874 6.863 c -1.06 -0.294 -2.217 -0.249 -3.289 0.223 c -0.855 0.376 -1.973 0.865 -3.137 1.37 c -2.506 1.087 -4.267 1.83 -5.234 2.209 c -0.879 0.344 -1.619 0.859 -2.2 1.529 c -8.417 9.711 0.87 27.111 13.808 40.049 c 9.5 9.501 21.406 17.032 30.906 17.032 c 3.437 0 6.561 -0.987 9.141 -3.223 c 0.671 -0.58 1.186 -1.321 1.53 -2.199 c 0.384 -0.979 1.139 -2.765 2.24 -5.304 c 0.494 -1.139 0.973 -2.231 1.34 -3.069 c 0.495 -1.126 0.532 -2.349 0.186 -3.452 h 20.751 c 3.791 0 6.874 -3.084 6.874 -6.874 V 17.237 C 90 13.447 86.916 10.362 83.126 10.362 z M 55.405 66.549 c -1.112 2.562 -1.885 4.394 -2.306 5.461 c -5.693 4.735 -19.352 -1.08 -31.873 -13.6 C 8.705 45.889 2.888 32.228 7.628 26.537 c 1.049 -0.412 2.887 -1.188 5.461 -2.305 c 0.807 -0.35 1.59 -0.691 2.277 -0.993 l 6.364 10.725 l -4.138 7.708 c -1.036 1.931 -0.691 4.27 0.859 5.82 l 13.695 13.695 c 1.55 1.551 3.891 1.896 5.821 0.859 l 7.708 -4.137 l 10.725 6.363 C 56.097 64.959 55.755 65.742 55.405 66.549 z M 84.066 55.517 c 0 0.519 -0.422 0.941 -0.941 0.941 H 54.857 l -6.642 -3.94 c -1.479 -0.878 -3.337 -0.918 -4.85 -0.105 l -7.551 4.053 L 23.172 43.822 l 4.053 -7.55 c 0.813 -1.514 0.773 -3.373 -0.104 -4.85 l -4.104 -6.917 v -7.268 c 0 -0.519 0.422 -0.941 0.941 -0.941 h 59.168 c 0.519 0 0.941 0.422 0.941 0.941 V 55.517 z" style="stroke: none; stroke-width: 1; stroke-dasharray: none; stroke-linecap: butt; stroke-linejoin: miter; stroke-miterlimit: 10; fill: rgb(0,0,0); fill-rule: nonzero; opacity: 1;" transform=" matrix(1 0 0 1 0 0) " stroke-linecap="round" />
</g>
</svg>